<svg width="30" height="30" viewBox="0 0 30 30" fill="none" xmlns="http://www.w3.org/2000/svg">
<path d="M15.706 7.99805H14.2968C14.1679 7.99805 14.0624 8.10352 14.0624 8.23243V16.2979C14.0624 16.374 14.0976 16.4443 14.1591 16.4883L19.0019 20.0244C19.1073 20.1006 19.2538 20.0801 19.33 19.9746L20.1679 18.832C20.247 18.7236 20.2236 18.5772 20.1181 18.5039L15.9403 15.4834V8.23243C15.9403 8.10352 15.8349 7.99805 15.706 7.99805ZM22.1454 10.2012L26.7392 11.3232C26.8857 11.3584 27.0292 11.2471 27.0292 11.0977L27.0527 6.36621C27.0527 6.16993 26.8271 6.0586 26.6747 6.18164L22.0575 9.78809C22.0226 9.81508 21.9961 9.85138 21.9809 9.8928C21.9657 9.93423 21.9625 9.97909 21.9717 10.0222C21.9809 10.0654 22.0021 10.1051 22.0328 10.1367C22.0635 10.1684 22.1026 10.1907 22.1454 10.2012ZM27.0585 19.0225L25.3974 18.4512C25.3395 18.4313 25.2761 18.4349 25.2208 18.4612C25.1655 18.4875 25.1227 18.5344 25.1015 18.5918C25.0458 18.7412 24.9872 18.8877 24.9257 19.0342C24.4042 20.2676 23.6571 21.3779 22.7021 22.3301C21.7576 23.2775 20.6383 24.0326 19.4062 24.5537C18.1298 25.0933 16.7578 25.3703 15.372 25.3682C13.9716 25.3682 12.6152 25.0957 11.3378 24.5537C10.1057 24.0326 8.98638 23.2775 8.04191 22.3301C7.08976 21.3779 6.34269 20.2676 5.81828 19.0342C5.28158 17.7571 5.00662 16.3853 5.00968 15C5.00968 13.5996 5.28214 12.2402 5.82414 10.9629C6.34562 9.7295 7.09269 8.61914 8.04777 7.667C8.99224 6.71959 10.1116 5.96443 11.3437 5.44336C12.6152 4.90137 13.9745 4.62891 15.3749 4.62891C16.7753 4.62891 18.1318 4.90137 19.4091 5.44336C20.6412 5.96443 21.7605 6.71959 22.705 7.667C23.0038 7.96875 23.2851 8.28223 23.5429 8.61328L25.2948 7.24219C22.9892 4.29493 19.4003 2.39942 15.3691 2.40235C8.34953 2.40528 2.71281 8.10645 2.78312 15.1289C2.85343 22.0283 8.46379 27.5977 15.3749 27.5977C20.8095 27.5977 25.4384 24.1523 27.2021 19.3272C27.246 19.2041 27.1816 19.0664 27.0585 19.0225Z" fill="white"/>
</svg>
