<svg width="29" height="29" viewBox="0 0 29 29" fill="none" xmlns="http://www.w3.org/2000/svg">
<path d="M14.5 0.9375C7.01035 0.9375 0.9375 7.01035 0.9375 14.5C0.9375 21.9896 7.01035 28.0625 14.5 28.0625C21.9896 28.0625 28.0625 21.9896 28.0625 14.5C28.0625 7.01035 21.9896 0.9375 14.5 0.9375ZM14.5 25.7617C8.28184 25.7617 3.23828 20.7182 3.23828 14.5C3.23828 8.28184 8.28184 3.23828 14.5 3.23828C20.7182 3.23828 25.7617 8.28184 25.7617 14.5C25.7617 20.7182 20.7182 25.7617 14.5 25.7617ZM15.944 13.7977L15.1751 13.619V9.55332C16.3255 9.71074 17.0369 10.4312 17.158 11.3152C17.1731 11.4363 17.2761 11.5241 17.3972 11.5241H18.7564C18.8987 11.5241 19.0107 11.4 18.9986 11.2577C18.814 9.37168 17.2609 8.16074 15.1872 7.95186V6.96191C15.1872 6.82871 15.0782 6.71973 14.945 6.71973H14.0943C13.9611 6.71973 13.8521 6.82871 13.8521 6.96191V7.96094C11.7088 8.16982 10.0316 9.35352 10.0316 11.5635C10.0316 13.61 11.5393 14.5969 13.1226 14.9753L13.8703 15.166V19.486C12.5322 19.3074 11.7814 18.593 11.6271 17.6303C11.6089 17.5152 11.506 17.4305 11.3879 17.4305H9.98926C9.84697 17.4305 9.73496 17.5516 9.74707 17.6938C9.8833 19.3589 11.1457 20.8907 13.84 21.0875V22.0381C13.84 22.1713 13.949 22.2803 14.0822 22.2803H14.942C15.0752 22.2803 15.1842 22.1713 15.1842 22.0351L15.1781 21.0754C17.5485 20.8665 19.2438 19.598 19.2438 17.3215C19.2408 15.2205 17.9058 14.282 15.944 13.7977ZM13.8673 13.3072C13.6978 13.2588 13.5555 13.2134 13.4132 13.1559C12.3899 12.7865 11.9146 12.1901 11.9146 11.4212C11.9146 10.3223 12.7472 9.69561 13.8673 9.55332V13.3072ZM15.1751 19.4951V15.4476C15.2689 15.4748 15.3537 15.496 15.4415 15.5142C16.8734 15.9501 17.3548 16.5556 17.3548 17.485C17.3548 18.6687 16.4647 19.3801 15.1751 19.4951Z" fill="white"/>
</svg>
