<svg width="30" height="30" viewBox="0 0 30 30" fill="none" xmlns="http://www.w3.org/2000/svg">
<path d="M18.125 11.25C18.125 12.0788 17.7958 12.8737 17.2097 13.4597C16.6237 14.0458 15.8288 14.375 15 14.375C14.1712 14.375 13.3763 14.0458 12.7903 13.4597C12.2042 12.8737 11.875 12.0788 11.875 11.25C11.875 10.4212 12.2042 9.62634 12.7903 9.04029C13.3763 8.45424 14.1712 8.125 15 8.125C15.8288 8.125 16.6237 8.45424 17.2097 9.04029C17.7958 9.62634 18.125 10.4212 18.125 11.25Z" stroke="#7E7E7E" stroke-width="1.875" stroke-linecap="round" stroke-linejoin="round"/>
<path d="M22.5001 25C22.5001 26.3813 19.1426 27.5 15.0001 27.5C10.8576 27.5 7.50011 26.3813 7.50011 25M16.5714 21.8675C16.1491 22.2737 15.586 22.5006 15.0001 22.5006C14.4142 22.5006 13.8511 22.2737 13.4289 21.8675C9.56761 18.1262 4.39386 13.9475 6.91636 7.88C8.28261 4.59875 11.5576 2.5 15.0001 2.5C18.4426 2.5 21.7189 4.6 23.0839 7.88C25.6039 13.9388 20.4426 18.1387 16.5714 21.8675Z" stroke="#7E7E7E" stroke-width="1.875" stroke-linecap="round" stroke-linejoin="round"/>
</svg>
