<svg width="30" height="30" viewBox="0 0 30 30" fill="none" xmlns="http://www.w3.org/2000/svg">
<path d="M18.125 11.25C18.125 12.0788 17.7958 12.8737 17.2097 13.4597C16.6237 14.0458 15.8288 14.375 15 14.375C14.1712 14.375 13.3763 14.0458 12.7903 13.4597C12.2042 12.8737 11.875 12.0788 11.875 11.25C11.875 10.4212 12.2042 9.62634 12.7903 9.04029C13.3763 8.45424 14.1712 8.125 15 8.125C15.8288 8.125 16.6237 8.45424 17.2097 9.04029C17.7958 9.62634 18.125 10.4212 18.125 11.25Z" stroke="#1A1E21" stroke-width="1.875" stroke-linecap="round" stroke-linejoin="round"/>
<path d="M22.5 25C22.5 26.3813 19.1425 27.5 15 27.5C10.8575 27.5 7.49999 26.3813 7.49999 25M16.5712 21.8675C16.149 22.2737 15.5859 22.5006 15 22.5006C14.4141 22.5006 13.851 22.2737 13.4287 21.8675C9.56749 18.1262 4.39374 13.9475 6.91624 7.88C8.28249 4.59875 11.5575 2.5 15 2.5C18.4425 2.5 21.7187 4.6 23.0837 7.88C25.6037 13.9388 20.4425 18.1387 16.5712 21.8675Z" stroke="#1A1E21" stroke-width="1.875" stroke-linecap="round" stroke-linejoin="round"/>
</svg>
