<svg width="39" height="39" viewBox="0 0 39 39" fill="none" xmlns="http://www.w3.org/2000/svg">
<path d="M19.501 18.4242C19.642 18.4242 19.7816 18.3965 19.9118 18.3425C20.042 18.2886 20.1603 18.2095 20.26 18.1098C20.3597 18.0102 20.4387 17.8919 20.4927 17.7616C20.5466 17.6314 20.5744 17.4918 20.5744 17.3509C20.5744 17.21 20.5466 17.0704 20.4927 16.9402C20.4387 16.8099 20.3597 16.6916 20.26 16.592C20.1603 16.4923 20.042 16.4132 19.9118 16.3593C19.7816 16.3054 19.642 16.2776 19.501 16.2776C19.2164 16.2776 18.9434 16.3907 18.7421 16.592C18.5408 16.7932 18.4277 17.0662 18.4277 17.3509C18.4277 17.6356 18.5408 17.9086 18.7421 18.1098C18.9434 18.3111 19.2164 18.4242 19.501 18.4242ZM27.0167 18.4242C27.1576 18.4242 27.2972 18.3965 27.4274 18.3425C27.5576 18.2886 27.676 18.2095 27.7756 18.1098C27.8753 18.0102 27.9543 17.8919 28.0083 17.7616C28.0622 17.6314 28.09 17.4918 28.09 17.3509C28.09 17.21 28.0622 17.0704 28.0083 16.9402C27.9543 16.8099 27.8753 16.6916 27.7756 16.592C27.676 16.4923 27.5576 16.4132 27.4274 16.3593C27.2972 16.3054 27.1576 16.2776 27.0167 16.2776C26.732 16.2776 26.459 16.3907 26.2577 16.592C26.0564 16.7932 25.9434 17.0662 25.9434 17.3509C25.9434 17.6356 26.0564 17.9086 26.2577 18.1098C26.459 18.3111 26.732 18.4242 27.0167 18.4242ZM11.9854 18.4242C12.1264 18.4242 12.2659 18.3965 12.3962 18.3425C12.5264 18.2886 12.6447 18.2095 12.7444 18.1098C12.844 18.0102 12.9231 17.8919 12.977 17.7616C13.031 17.6314 13.0587 17.4918 13.0587 17.3509C13.0587 17.21 13.031 17.0704 12.977 16.9402C12.9231 16.8099 12.844 16.6916 12.7444 16.592C12.6447 16.4923 12.5264 16.4132 12.3962 16.3593C12.2659 16.3054 12.1264 16.2776 11.9854 16.2776C11.7008 16.2776 11.4278 16.3907 11.2265 16.592C11.0252 16.7932 10.9121 17.0662 10.9121 17.3509C10.9121 17.6356 11.0252 17.9086 11.2265 18.1098C11.4278 18.3111 11.7008 18.4242 11.9854 18.4242Z" stroke="#F28A15" stroke-width="2.4375" stroke-linecap="round" stroke-linejoin="round"/>
<path d="M34.5312 17.7774V22.9286C34.5283 24.6395 33.851 26.2802 32.6463 27.4949C32.0403 28.0867 31.3294 28.5607 30.55 28.8924C29.7702 29.2083 28.9376 29.3738 28.0963 29.3799H23.79L20.2475 32.9224C20.1477 33.0215 20.0324 33.1039 19.9062 33.1661C19.7775 33.2197 19.6395 33.2474 19.5 33.2474C19.3605 33.2474 19.2225 33.2197 19.0938 33.1661C18.9676 33.1039 18.8523 33.0215 18.7525 32.9224L15.21 29.3799H10.9038C9.19854 29.3727 7.56444 28.6957 6.35375 27.4949C5.14897 26.2802 4.47166 24.6395 4.46875 22.9286V12.2036C4.46875 10.4797 5.15357 8.82641 6.37256 7.60742C7.59154 6.38843 9.24484 5.70361 10.9688 5.70361H21.125M26.4062 8.83824L28.4635 10.8955C28.536 10.9687 28.6223 11.0268 28.7174 11.0665C28.8126 11.1061 28.9146 11.1265 29.0176 11.1265C29.1207 11.1265 29.2227 11.1061 29.3178 11.0665C29.4129 11.0268 29.4992 10.9687 29.5717 10.8955L33.7188 6.74849" stroke="#F28A15" stroke-width="2.4375" stroke-linecap="round" stroke-linejoin="round"/>
</svg>
