<svg width="703" height="386" viewBox="0 0 703 386" fill="none" xmlns="http://www.w3.org/2000/svg">
<path opacity="0.3" d="M683.517 44.0068C694.324 44.2808 703 53.127 703 64V366L702.993 366.517C702.724 377.152 694.152 385.724 683.517 385.993L683 386H20L19.4834 385.993C8.84813 385.724 0.276492 377.152 0.00683594 366.517L0 366V64C2.20283e-06 55.4171 5.40689 48.0983 13 45.2607V46.3311C5.97077 49.1182 1 55.9786 1 64V366C1 376.493 9.50659 385 20 385H683C693.493 385 702 376.493 702 366V64C702 53.5066 693.493 45 683 45H117V44H683L683.517 44.0068Z" fill="white"/>
<path d="M63.3345 30.5656C64.1323 30.5656 64.7784 29.9209 64.7784 29.1244C64.7784 28.3266 64.1323 27.6819 63.3345 27.6819C54.7497 27.6819 47.7646 34.6575 47.7646 43.2328C47.7646 51.8094 54.7497 58.785 63.3345 58.785C71.9179 58.785 78.9029 51.8094 78.9029 43.2328C78.9029 42.4363 78.2582 41.7916 77.4591 41.7916C76.6613 41.7916 76.0152 42.4363 76.0152 43.2328C76.0152 50.2178 70.3277 55.8999 63.3345 55.8999C56.3413 55.8999 50.6524 50.2178 50.6524 43.2328C50.6524 36.249 56.3413 30.5656 63.3345 30.5656Z" fill="white"/>
<path d="M63.3333 15.8436C48.2145 15.8436 35.9131 28.1315 35.9131 43.2327C35.9131 58.3352 48.2145 70.6218 63.3333 70.6218C78.4508 70.6218 90.7522 58.3352 90.7522 43.2327C90.7522 42.4363 90.1061 41.7915 89.3097 41.7915C88.5105 41.7915 87.8644 42.4363 87.8644 43.2327C87.8644 56.7451 76.8606 67.7381 63.3333 67.7381C49.8047 67.7381 38.8009 56.7451 38.8009 43.2327C38.8009 29.7217 49.8047 18.7287 63.3333 18.7287C64.1311 18.7287 64.7772 18.0839 64.7772 17.2862C64.7772 16.4897 64.1311 15.8436 63.3333 15.8436Z" fill="white"/>
<mask id="mask0_1350_240" style="mask-type:luminance" maskUnits="userSpaceOnUse" x="23" y="2" width="81" height="82">
<path d="M23 2.74158H103.666V83.4798H23V2.74158Z" fill="white"/>
</mask>
<g mask="url(#mask0_1350_240)">
<path d="M102.175 41.7921C101.377 41.7921 100.731 42.4368 100.731 43.2332C100.731 63.8309 83.9547 80.5873 63.3353 80.5873C42.7146 80.5873 25.9366 63.8309 25.9366 43.2332C25.9366 22.6356 42.7146 5.8792 63.3353 5.8792C64.1331 5.8792 64.7792 5.23446 64.7792 4.43667C64.7792 3.63888 64.1331 2.99414 63.3353 2.99414C41.1217 2.99414 23.0488 21.0467 23.0488 43.2332C23.0488 65.4224 41.1217 83.4723 63.3353 83.4723C85.5489 83.4723 103.619 65.4224 103.619 43.2332C103.619 42.4368 102.974 41.7921 102.175 41.7921Z" fill="white"/>
</g>
<mask id="mask1_1350_240" style="mask-type:luminance" maskUnits="userSpaceOnUse" x="61" y="0" width="46" height="45">
<path d="M61.71 0H107V44.6981H61.71V0Z" fill="white"/>
</mask>
<g mask="url(#mask1_1350_240)">
<path d="M93.6507 24.1623L86.4272 22.4367L95.4224 13.5418L102.574 15.2498L93.6507 24.1623ZM82.7579 13.2804L91.6799 4.3692L93.3839 11.5006L84.4456 20.3372L82.7579 13.2804ZM106.81 14.0551C106.666 13.5513 106.262 13.1652 105.754 13.0433L96.1755 10.757L93.8878 1.19022C93.7672 0.682283 93.3812 0.281355 92.8759 0.139134C92.3734 -0.00308752 91.8316 0.135071 91.4632 0.5062L80.1424 11.8121C79.7875 12.1656 79.644 12.679 79.7591 13.1666L82.0441 22.7117L62.3255 42.2095C61.7593 42.7689 61.7539 43.6818 62.3147 44.248C62.5964 44.5338 62.9689 44.676 63.3414 44.676C63.7071 44.676 64.0741 44.5379 64.3559 44.2588L84.0108 24.826L93.7631 27.1544C93.8742 27.1815 93.9866 27.1937 94.0991 27.1937C94.4783 27.1937 94.8467 27.0447 95.1203 26.7711L106.44 15.4665C106.81 15.0967 106.95 14.5563 106.81 14.0551Z" fill="white"/>
</g>
</svg>
