<svg width="46" height="46" viewBox="0 0 46 46" fill="none" xmlns="http://www.w3.org/2000/svg">
<path opacity="0.2" d="M25.1275 15.167C23.3154 15.855 21.6923 16.9628 20.3913 18.3997C19.0904 19.8365 18.1487 21.5614 17.6435 23.4327V23.4129C16.4973 23.0235 15.2771 22.902 14.0766 23.0577C12.8761 23.2135 11.7273 23.6423 10.7184 24.3113C9.91148 23.3731 9.31593 22.2722 8.97217 21.0834C8.62841 19.8946 8.5445 18.6457 8.72612 17.4216C8.90774 16.1976 9.35065 15.0269 10.0248 13.9891C10.6989 12.9513 11.5884 12.0708 12.633 11.4072C13.6775 10.7437 14.8527 10.3127 16.0785 10.1435C17.3044 9.9743 18.5524 10.0709 19.7376 10.4267C20.9228 10.7825 22.0176 11.3892 22.9477 12.2056C23.8777 13.022 24.6211 14.0289 25.1275 15.1581V15.167Z" fill="#F28A15"/>
<path d="M29.4688 12.9369C28.2387 12.9361 27.0142 13.1011 25.8283 13.4274C25.3602 12.6636 24.7915 11.9661 24.1374 11.3538L25.8463 8.91549C25.9546 8.76081 26.0313 8.58631 26.0722 8.40196C26.1131 8.21761 26.1173 8.02701 26.0845 7.84105C26.0517 7.65509 25.9826 7.47741 25.8811 7.31815C25.7797 7.1589 25.6478 7.02118 25.4932 6.91287C25.3385 6.80456 25.164 6.72778 24.9796 6.6869C24.7953 6.64603 24.6047 6.64187 24.4187 6.67466C24.2328 6.70744 24.0551 6.77654 23.8958 6.87799C23.7366 6.97945 23.5989 7.11128 23.4905 7.26596L21.7817 9.70252C20.3765 8.993 18.8242 8.6237 17.25 8.62439H16.9373L16.418 5.69728C16.3908 5.50656 16.3255 5.32325 16.226 5.15827C16.1265 4.99328 15.9948 4.84998 15.8389 4.73688C15.6829 4.62378 15.5058 4.54319 15.318 4.4999C15.1303 4.4566 14.9358 4.45149 14.746 4.48486C14.5563 4.51824 14.3751 4.58941 14.2134 4.69416C14.0517 4.79891 13.9128 4.9351 13.8047 5.09463C13.6967 5.25416 13.6218 5.43378 13.5846 5.62281C13.5474 5.81185 13.5485 6.00644 13.588 6.19502L14.1055 9.13111C12.5112 9.65842 11.0739 10.5756 9.92414 11.7995L7.4768 10.087C7.32225 9.97608 7.1472 9.89689 6.96181 9.85408C6.77642 9.81128 6.58437 9.8057 6.39681 9.83768C6.20925 9.86965 6.0299 9.93855 5.86917 10.0404C5.70843 10.1422 5.56951 10.2749 5.46045 10.4308C5.3514 10.5867 5.27438 10.7627 5.23386 10.9486C5.19335 11.1345 5.19014 11.3266 5.22443 11.5138C5.25872 11.7009 5.32982 11.8794 5.43361 12.0389C5.5374 12.1984 5.67182 12.3356 5.82907 12.4428L8.26563 14.1534C7.5536 15.5583 7.18416 17.1118 7.1875 18.6869V18.996L4.26039 19.5135C3.9061 19.5755 3.58794 19.7682 3.36874 20.0533C3.14953 20.3385 3.0452 20.6955 3.07634 21.0538C3.10748 21.4122 3.27183 21.7458 3.53694 21.9889C3.80206 22.232 4.14867 22.3669 4.50836 22.3669C4.59209 22.367 4.67566 22.3598 4.75813 22.3453L7.69063 21.8278C7.94822 22.6123 8.30189 23.3619 8.7436 24.0595C7.36861 25.3367 6.41006 26.9983 5.99276 28.8279C5.57547 30.6576 5.71877 32.5705 6.40401 34.3175C7.08926 36.0645 8.28468 37.5648 9.83461 38.6228C11.3845 39.6808 13.2171 40.2476 15.0938 40.2494H29.4688C33.0906 40.2494 36.5641 38.8106 39.1252 36.2496C41.6862 33.6885 43.125 30.215 43.125 26.5931C43.125 22.9713 41.6862 19.4978 39.1252 16.9367C36.5641 14.3757 33.0906 12.9369 29.4688 12.9369ZM10.0625 18.6869C10.0634 17.1647 10.5475 15.682 11.4451 14.4526C12.3427 13.2232 13.6075 12.3106 15.0571 11.8461C16.5067 11.3817 18.0664 11.3895 19.5113 11.8684C20.9562 12.3473 22.2118 13.2726 23.097 14.511C20.1647 16.0541 17.8909 18.6076 16.6966 21.6985C14.8069 21.3723 12.8626 21.6338 11.1263 22.4478C10.4311 21.3165 10.0629 20.0147 10.0625 18.6869ZM29.4688 37.3744H15.0938C14.209 37.3728 13.334 37.1897 12.5229 36.8364C11.7117 36.4832 10.9816 35.9673 10.3778 35.3206C9.77395 34.674 9.30917 33.9104 9.0122 33.077C8.71523 32.2435 8.59238 31.3581 8.65124 30.4753C8.7101 29.5925 8.94942 28.7312 9.35441 27.9446C9.75939 27.158 10.3214 26.4628 11.0058 25.9021C11.6901 25.3413 12.4822 24.9269 13.3331 24.6845C14.184 24.4421 15.0755 24.3767 15.9527 24.4926C15.8862 24.9185 15.8395 25.3533 15.8143 25.7917C15.7924 26.173 15.9228 26.5473 16.1769 26.8324C16.431 27.1175 16.7879 27.29 17.1691 27.3119C17.5504 27.3338 17.9247 27.2034 18.2098 26.9493C18.4949 26.6952 18.6674 26.3383 18.6893 25.957C18.7297 25.2401 18.8429 24.529 19.0271 23.8349C19.0271 23.8062 19.0433 23.7774 19.0487 23.7487C19.577 21.8071 20.6377 20.0518 22.1109 18.6812C23.5841 17.3105 25.4112 16.379 27.3858 15.9919C29.3605 15.6048 31.404 15.7775 33.2857 16.4904C35.1674 17.2033 36.8123 18.4282 38.0346 20.0266C39.257 21.625 40.0081 23.5333 40.2032 25.536C40.3983 27.5388 40.0296 29.5562 39.1387 31.3604C38.2478 33.1647 36.8702 34.684 35.1615 35.7466C33.4528 36.8093 31.481 37.3731 29.4688 37.3744Z" fill="#F28A15"/>
</svg>
