<svg width="33" height="33" viewBox="0 0 33 33" fill="none" xmlns="http://www.w3.org/2000/svg">
<path d="M13.872 29.9123C14.7031 30.598 15.5698 31.2247 16.4571 31.8364C17.3464 31.2328 18.2089 30.5908 19.0423 29.9123C20.4315 28.7715 21.739 27.5347 22.955 26.2108C25.7582 23.1456 28.8 18.7022 28.8 13.7143C28.8 12.0934 28.4807 10.4884 27.8605 8.99091C27.2402 7.49341 26.331 6.13274 25.1849 4.9866C24.0387 3.84046 22.6781 2.93129 21.1806 2.311C19.683 1.69072 18.078 1.37146 16.4571 1.37146C14.8363 1.37146 13.2312 1.69072 11.7337 2.311C10.2362 2.93129 8.87557 3.84046 7.72943 4.9866C6.58329 6.13274 5.67412 7.49341 5.05383 8.99091C4.43355 10.4884 4.11429 12.0934 4.11429 13.7143C4.11429 18.7022 7.15612 23.1443 9.95932 26.2108C11.1753 27.5351 12.4827 28.7711 13.872 29.9123ZM16.4571 18.1715C15.275 18.1715 14.1413 17.7019 13.3055 16.866C12.4696 16.0301 12 14.8964 12 13.7143C12 12.5322 12.4696 11.3985 13.3055 10.5626C14.1413 9.72676 15.275 9.25717 16.4571 9.25717C17.6393 9.25717 18.7729 9.72676 19.6088 10.5626C20.4447 11.3985 20.9143 12.5322 20.9143 13.7143C20.9143 14.8964 20.4447 16.0301 19.6088 16.866C18.7729 17.7019 17.6393 18.1715 16.4571 18.1715Z" fill="#0E334F"/>
</svg>
