<svg width="30" height="30" viewBox="0 0 30 30" fill="none" xmlns="http://www.w3.org/2000/svg">
<path d="M15.706 7.99805H14.2969C14.1679 7.99805 14.0625 8.10352 14.0625 8.23243V16.2979C14.0625 16.374 14.0976 16.4443 14.1592 16.4883L19.0019 20.0244C19.1074 20.1006 19.2539 20.0801 19.3301 19.9746L20.1679 18.832C20.2471 18.7236 20.2236 18.5772 20.1181 18.5039L15.9404 15.4834V8.23243C15.9404 8.10352 15.8349 7.99805 15.706 7.99805ZM22.1455 10.2012L26.7392 11.3232C26.8857 11.3584 27.0293 11.2471 27.0293 11.0977L27.0527 6.36621C27.0527 6.16993 26.8271 6.0586 26.6748 6.18164L22.0576 9.78809C22.0227 9.81508 21.9961 9.85138 21.9809 9.8928C21.9658 9.93423 21.9626 9.97909 21.9718 10.0222C21.9809 10.0654 22.0021 10.1051 22.0329 10.1367C22.0636 10.1684 22.1026 10.1907 22.1455 10.2012ZM27.0586 19.0225L25.3974 18.4512C25.3395 18.4313 25.2761 18.4349 25.2208 18.4612C25.1655 18.4875 25.1227 18.5344 25.1015 18.5918C25.0459 18.7412 24.9873 18.8877 24.9258 19.0342C24.4043 20.2676 23.6572 21.3779 22.7021 22.3301C21.7577 23.2775 20.6383 24.0326 19.4062 24.5537C18.1298 25.0933 16.7578 25.3703 15.3721 25.3682C13.9717 25.3682 12.6152 25.0957 11.3379 24.5537C10.1058 24.0326 8.98645 23.2775 8.04197 22.3301C7.08982 21.3779 6.34275 20.2676 5.81834 19.0342C5.28164 17.7571 5.00668 16.3853 5.00974 15C5.00974 13.5996 5.28221 12.2402 5.8242 10.9629C6.34568 9.7295 7.09275 8.61914 8.04783 7.667C8.9923 6.71959 10.1116 5.96443 11.3437 5.44336C12.6152 4.90137 13.9746 4.62891 15.375 4.62891C16.7754 4.62891 18.1318 4.90137 19.4092 5.44336C20.6413 5.96443 21.7606 6.71959 22.7051 7.667C23.0039 7.96875 23.2851 8.28223 23.5429 8.61328L25.2949 7.24219C22.9892 4.29493 19.4004 2.39942 15.3691 2.40235C8.34959 2.40528 2.71287 8.10645 2.78318 15.1289C2.85349 22.0283 8.46385 27.5977 15.375 27.5977C20.8095 27.5977 25.4385 24.1523 27.2021 19.3272C27.2461 19.2041 27.1816 19.0664 27.0586 19.0225Z" fill="#1A1E21"/>
</svg>
