<svg width="32" height="32" viewBox="0 0 32 32" fill="none" xmlns="http://www.w3.org/2000/svg">
<path d="M15 6C15 5.20888 15.2346 4.43552 15.6741 3.77772C16.1137 3.11992 16.7384 2.60723 17.4693 2.30448C18.2002 2.00173 19.0045 1.92252 19.7804 2.07686C20.5563 2.2312 21.269 2.61216 21.8284 3.17157C22.3879 3.73098 22.7688 4.44372 22.9232 5.21964C23.0775 5.99556 22.9983 6.79983 22.6955 7.53074C22.3928 8.26164 21.8801 8.88635 21.2223 9.32588C20.5645 9.76541 19.7911 10 19 10C17.9392 10 16.9217 9.57857 16.1716 8.82843C15.4214 8.07828 15 7.06087 15 6ZM24 17C21.0788 17 20.385 15.93 19.425 14.45C18.9688 13.745 18.4513 12.95 17.655 12.2563C17.3499 11.9896 17.0142 11.7601 16.655 11.5725C16.5334 11.5098 16.4002 11.4728 16.2637 11.4637C16.1271 11.4545 15.9902 11.4735 15.8613 11.5195C15.7324 11.5654 15.6143 11.6373 15.5143 11.7307C15.4144 11.8241 15.3346 11.937 15.28 12.0625L8.08252 28.6012C7.97704 28.8444 7.97244 29.1195 8.06971 29.3661C8.16698 29.6127 8.35817 29.8106 8.60127 29.9163C8.7268 29.9719 8.86269 30.0005 9.00002 30C9.1949 30.0001 9.38556 29.9432 9.54857 29.8364C9.71157 29.7296 9.83981 29.5775 9.91752 29.3988L14.1163 19.74L18 22.515V29C18 29.2652 18.1054 29.5196 18.2929 29.7071C18.4804 29.8946 18.7348 30 19 30C19.2652 30 19.5196 29.8946 19.7071 29.7071C19.8947 29.5196 20 29.2652 20 29V22C20 21.8408 19.962 21.6839 19.8892 21.5424C19.8164 21.4009 19.7108 21.2788 19.5813 21.1863L14.9313 17.865L16.6063 14.0138C17.0525 14.4663 17.3913 14.9888 17.7475 15.5375C18.7063 17.0175 19.7813 18.6763 22.9975 18.9575V29C22.9975 29.2652 23.1029 29.5196 23.2904 29.7071C23.4779 29.8946 23.7323 30 23.9975 30C24.2627 30 24.5171 29.8946 24.7046 29.7071C24.8922 29.5196 24.9975 29.2652 24.9975 29V18C24.9975 17.7352 24.8925 17.4812 24.7055 17.2938C24.5185 17.1063 24.2648 17.0007 24 17ZM9.00002 19C9.19589 19.0002 9.38749 18.9428 9.55104 18.835C9.71459 18.7272 9.84289 18.5738 9.92002 18.3937L12.92 11.3938C13.0243 11.1501 13.0276 10.8749 12.9292 10.6288C12.8307 10.3827 12.6386 10.1858 12.395 10.0813L8.89502 8.58125C8.65134 8.47694 8.37621 8.47365 8.1301 8.57209C7.88399 8.67053 7.68704 8.86266 7.58252 9.10625L4.58252 16.1063C4.47821 16.3499 4.47491 16.6251 4.57335 16.8712C4.6718 17.1173 4.86393 17.3142 5.10752 17.4188L8.60752 18.9188C8.73153 18.972 8.86504 18.9997 9.00002 19Z" fill="black"/>
</svg>
