<svg width="33" height="33" viewBox="0 0 33 33" fill="none" xmlns="http://www.w3.org/2000/svg">
<path d="M2.74286 26.0571C2.74286 28.3885 4.52572 30.1714 6.85714 30.1714H26.0571C28.3886 30.1714 30.1714 28.3885 30.1714 26.0571V15.0857H2.74286V26.0571ZM26.0571 5.48566H23.3143V4.11423C23.3143 3.29137 22.7657 2.7428 21.9429 2.7428C21.12 2.7428 20.5714 3.29137 20.5714 4.11423V5.48566H12.3429V4.11423C12.3429 3.29137 11.7943 2.7428 10.9714 2.7428C10.1486 2.7428 9.6 3.29137 9.6 4.11423V5.48566H6.85714C4.52572 5.48566 2.74286 7.26851 2.74286 9.59994V12.3428H30.1714V9.59994C30.1714 7.26851 28.3886 5.48566 26.0571 5.48566Z" fill="#0E334F"/>
</svg>
