<svg width="703" height="386" viewBox="0 0 703 386" fill="none" xmlns="http://www.w3.org/2000/svg">
<path opacity="0.3" d="M683.517 44.0068C694.324 44.2808 703 53.127 703 64V366L702.993 366.517C702.724 377.152 694.152 385.724 683.517 385.993L683 386H20L19.4834 385.993C8.84813 385.724 0.276492 377.152 0.00683594 366.517L0 366V64C2.20283e-06 55.4171 5.40689 48.0983 13 45.2607V46.3311C5.97077 49.1182 1 55.9786 1 64V366C1 376.493 9.50659 385 20 385H683C693.493 385 702 376.493 702 366V64C702 53.5066 693.493 45 683 45H117V44H683L683.517 44.0068Z" fill="white"/>
<path d="M63.8833 27.7927C59.2695 28.3077 55.5957 32.0835 55.1456 36.7714C54.8278 40.0719 56.1372 43.3194 58.6354 45.4456C59.1239 45.8547 59.4019 46.4624 59.4019 47.0952V50.0925C59.4019 52.3246 61.1865 54.1331 63.367 54.1331H66.6728C68.8533 54.1331 70.6379 52.3246 70.6379 50.0925V47.2276C70.6379 46.5021 70.9146 45.8415 71.3779 45.4456C73.6378 43.5312 74.9339 40.7325 74.9339 37.7617C74.9339 34.7908 73.704 32.1364 71.5765 30.2221C69.4609 28.3342 66.7244 27.463 63.8966 27.7795L63.8833 27.7927ZM66.6596 51.4919H63.3538C62.627 51.4919 62.0325 50.8723 62.0325 50.0925V48.7329L67.9808 48.8255V50.0925C67.9808 50.859 67.3864 51.4919 66.6596 51.4919ZM69.8051 32.2026C71.3779 33.602 72.2769 35.6355 72.2769 37.7617C72.2769 39.8865 71.325 42.026 69.6595 43.4386C68.8533 44.1257 68.2985 45.1027 68.0867 46.1843L66.3286 46.1579V42.7912L69.9111 39.214L68.047 37.3513L65.0192 40.3751L61.9928 37.3513L60.1288 39.214L63.7112 42.7912V46.1181L61.9531 46.0917C61.728 45.063 61.1865 44.1257 60.3671 43.4253C58.5295 41.8539 57.5644 39.451 57.8027 37.0084C58.1336 33.6152 60.8821 30.7768 64.1997 30.4074C64.4778 30.3809 64.7558 30.3544 65.0325 30.3544C66.8039 30.3544 68.4826 30.9886 69.8184 32.1894L69.8051 32.2026Z" fill="white"/>
<path d="M45.1807 40.9299C45.1807 51.8494 54.076 60.7341 65.0074 60.7341C75.9402 60.7341 84.8355 51.8494 84.8355 40.9299C84.8355 30.0116 75.9402 21.1256 65.0074 21.1256C54.076 21.1256 45.1807 30.0116 45.1807 40.9299ZM82.1917 40.9299C82.1917 50.3971 74.4852 58.0942 65.0074 58.0942C55.5309 58.0942 47.8245 50.3971 47.8245 40.9299C47.8245 31.464 55.5309 23.7655 65.0074 23.7655C74.4852 23.7655 82.1917 31.464 82.1917 40.9299Z" fill="white"/>
<mask id="mask0_1350_241" style="mask-type:luminance" maskUnits="userSpaceOnUse" x="24" y="13" width="73" height="31">
<path d="M24.0186 13.1519H96.9801V43.6546H24.0186V13.1519Z" fill="white"/>
</mask>
<g mask="url(#mask0_1350_241)">
<path d="M25.3539 43.571C25.4863 43.571 25.6187 43.5446 25.7511 43.5048L34.8317 40.6002C35.2951 40.4546 35.638 40.0587 35.7306 39.5834C35.8233 39.1082 35.638 38.6196 35.2554 38.3151L32.1482 35.8474C38.679 27.9384 50.9714 15.8446 64.9955 15.8446C76.1123 15.8446 86.1713 23.6079 92.6624 30.1162C93.1244 30.5783 94.6575 32.1894 94.9753 32.5456L96.9187 30.7636C96.5878 30.4075 95.0017 28.7433 94.5264 28.2548C87.6925 21.3891 77.0112 13.2034 64.9955 13.2034C49.8739 13.2034 36.9076 25.9181 30.0736 34.1965L26.9797 31.7274C26.597 31.4242 26.0807 31.358 25.6319 31.5421C25.1818 31.7406 24.8786 32.163 24.8389 32.6383L24.0326 42.132C23.9929 42.5675 24.1783 43.0031 24.5212 43.2798C24.7595 43.4651 25.0507 43.571 25.3407 43.571H25.3539ZM27.2709 35.3324L31.6729 38.8434L26.8353 40.3884L27.2709 35.3324Z" fill="white"/>
</g>
<mask id="mask1_1350_241" style="mask-type:luminance" maskUnits="userSpaceOnUse" x="63" y="0" width="4" height="9">
<path d="M63.4336 0H66.4839V8.06786H63.4336V0Z" fill="white"/>
</mask>
<g mask="url(#mask1_1350_241)">
<path d="M63.6895 0.00012207H66.3333V7.92235H63.6895V0.00012207Z" fill="white"/>
</g>
<path d="M79.8125 10.8546L84.5441 4.49585L86.6663 6.07129L81.9347 12.4287L79.8125 10.8546Z" fill="white"/>
<mask id="mask2_1350_241" style="mask-type:luminance" maskUnits="userSpaceOnUse" x="32" y="38" width="75" height="31">
<path d="M32.9268 38.2323H106.124V68.735H32.9268V38.2323Z" fill="white"/>
</mask>
<g mask="url(#mask2_1350_241)">
<path d="M104.309 38.3556L95.2286 41.2602C94.7653 41.4058 94.4224 41.8017 94.3297 42.277C94.237 42.7522 94.4224 43.2408 94.805 43.5453L97.9122 46.0143C91.3814 53.922 79.0889 66.0158 65.0635 66.0158C53.948 66.0158 43.8877 58.2525 37.3979 51.7442C36.9359 51.2821 35.4015 49.6577 35.0851 49.3148L33.1416 51.0968C33.4726 51.4529 35.0586 53.1171 35.5339 53.6056C42.3679 60.4713 53.0491 68.657 65.0635 68.657C80.1865 68.657 93.1527 55.9423 99.9867 47.6639L103.081 50.133C103.318 50.3183 103.609 50.4242 103.9 50.4242C104.071 50.4242 104.256 50.3845 104.428 50.3183C104.877 50.1197 105.182 49.6974 105.221 49.2221L106.028 39.7298C106.067 39.2929 105.882 38.8573 105.539 38.5806C105.195 38.3039 104.733 38.2245 104.309 38.3556ZM102.789 46.5293L98.3875 43.017L103.225 41.472L102.789 46.5293Z" fill="white"/>
</g>
<path d="M43.3594 6.0685L45.4816 4.49438L50.2119 10.8531L48.0897 12.4272L43.3594 6.0685Z" fill="white"/>
<mask id="mask3_1350_241" style="mask-type:luminance" maskUnits="userSpaceOnUse" x="63" y="73" width="4" height="9">
<path d="M63.4336 73.4785H66.4839V81.594H63.4336V73.4785Z" fill="white"/>
</mask>
<g mask="url(#mask3_1350_241)">
<path d="M63.6895 73.7001H66.3333V81.621H63.6895V73.7001Z" fill="white"/>
</g>
<path d="M79.8125 70.7692L81.9347 69.1937L86.665 75.5511L84.5441 77.1265L79.8125 70.7692Z" fill="white"/>
<path d="M43.3564 75.5418L48.0867 69.1831L50.209 70.7572L45.4787 77.1172L43.3564 75.5418Z" fill="white"/>
</svg>
