<svg width="47" height="47" viewBox="0 0 47 47" fill="none" xmlns="http://www.w3.org/2000/svg">
<path d="M23.4998 13.7084V7.18129C23.4998 5.64204 23.5018 4.87241 23.962 4.39458C24.4222 3.91675 25.1644 3.91675 26.6528 3.91675H30.7907C32.2438 3.91675 32.9703 3.91479 33.6048 4.22421C34.2393 4.53362 34.7035 5.11133 35.6337 6.26675L36.0018 6.72304C36.8067 7.72179 37.2082 8.22117 37.2082 8.81258C37.2082 9.404 36.8048 9.90337 36.0018 10.9021L35.6337 11.3604C34.7035 12.5138 34.2393 13.0915 33.6048 13.401C32.9684 13.7084 32.2438 13.7084 30.7907 13.7084H23.4998ZM23.4998 13.7084H16.209C14.7559 13.7084 14.0293 13.7065 13.3948 14.0159C12.7603 14.3253 12.2962 14.903 11.366 16.0584L10.9978 16.5147C10.193 17.5135 9.7915 18.0128 9.7915 18.6042C9.7915 19.1957 10.1949 19.695 10.9978 20.6938L11.366 21.152C12.2962 22.3055 12.7603 22.8832 13.3948 23.1926C14.0313 23.5001 14.7559 23.5001 16.209 23.5001H23.4998V13.7084ZM23.4998 43.0834V5.87508M17.6248 43.0834H29.3748M35.6337 23.8917C34.7035 22.7363 34.2393 22.1586 33.6048 21.8492C32.9703 21.5398 32.2438 21.5417 30.7907 21.5417H23.4998V31.3334H30.7907C32.2438 31.3334 32.9684 31.3334 33.6048 31.026C34.2393 30.7165 34.7035 30.1388 35.6337 28.9854L36.0018 28.5271C36.8048 27.5284 37.2082 27.029 37.2082 26.4376C37.2082 25.8462 36.8067 25.3468 36.0018 24.348L35.6337 23.8917Z" stroke="#0E334F" stroke-width="2.9375" stroke-linecap="round" stroke-linejoin="round"/>
</svg>
